<?xml version="1.0" standalone="no"?>
<!DOCTYPE svg PUBLIC "-//W3C//DTD SVG 20010904//EN"
 "http://www.w3.org/TR/2001/REC-SVG-20010904/DTD/svg10.dtd">
<svg version="1.0" xmlns="http://www.w3.org/2000/svg"
 width="200.000000pt" height="200.000000pt" viewBox="0 0 200.000000 200.000000"
 preserveAspectRatio="xMidYMid meet">

<g transform="translate(0.000000,200.000000) scale(0.100000,-0.100000)"
fill="#000000" stroke="none">
<path d="M1120 1956 c102 -19 243 -62 314 -98 69 -35 86 -31 24 5 -112 65
-211 95 -333 102 l-80 5 75 -14z"/>
<path d="M976 1868 c-11 -18 -30 -51 -42 -73 -12 -22 -55 -97 -96 -165 l-75
-125 -286 -3 c-158 -1 -287 -6 -287 -10 0 -5 11 -23 25 -42 14 -19 25 -38 25
-42 0 -5 11 -27 26 -49 14 -22 34 -57 46 -77 11 -20 52 -92 90 -159 l70 -123
-33 -57 c-18 -32 -53 -94 -79 -138 -147 -251 -170 -292 -170 -298 0 -4 127 -7
283 -7 l284 0 54 -92 c30 -51 81 -140 114 -197 33 -57 65 -106 72 -108 6 -2
22 14 35 37 13 23 64 112 114 198 l91 157 286 3 c158 1 287 4 287 6 0 3 -24
45 -173 301 -38 66 -78 137 -89 158 -22 44 -34 16 133 309 66 114 119 212 119
218 0 7 -96 10 -283 10 l-283 0 -44 78 c-25 42 -68 117 -97 165 -29 48 -53 91
-53 95 0 4 -10 19 -23 35 l-22 27 -19 -32z m85 -273 c27 -44 48 -83 49 -87 0
-5 -49 -8 -110 -8 -60 0 -110 2 -110 5 0 9 40 87 69 133 14 23 32 41 40 40 8
-2 36 -39 62 -83z m-376 -207 c4 -4 -13 -42 -38 -85 -24 -43 -55 -96 -67 -118
-12 -22 -28 -47 -36 -55 -17 -17 -25 -7 -74 83 -17 32 -45 79 -61 105 -35 55
-36 69 -6 75 35 7 275 3 282 -5z m472 3 c20 -5 47 -45 129 -186 57 -99 103
-191 104 -205 0 -37 -198 -371 -230 -387 -17 -9 -71 -12 -174 -10 l-149 2 -26
32 c-48 60 -201 336 -201 363 0 15 43 101 103 205 79 137 109 181 127 186 32
9 283 9 317 0z m453 -7 c10 -10 -126 -254 -145 -261 -10 -3 -155 237 -155 256
0 5 12 12 28 14 48 9 262 1 272 -9z m-1022 -586 c70 -117 94 -168 88 -184 -4
-11 -31 -14 -123 -14 -131 0 -163 6 -163 27 0 19 133 253 144 253 2 0 27 -37
54 -82z m958 -46 c29 -51 56 -103 60 -117 5 -21 2 -25 -29 -30 -44 -8 -253 -3
-263 7 -6 7 56 123 124 233 29 46 23 52 108 -93z m-446 -263 c0 -16 -68 -135
-85 -149 -12 -10 -18 -10 -30 0 -18 15 -85 132 -85 148 0 8 31 12 100 12 65 0
100 -4 100 -11z"/>
<path d="M153 1488 c-50 -79 -94 -189 -108 -266 -14 -79 -26 -216 -19 -209 3
2 11 46 19 98 16 109 63 254 111 352 39 76 37 88 -3 25z"/>
<path d="M1971 995 c-13 -155 -73 -357 -146 -491 -25 -46 -44 -84 -42 -84 2 0
17 19 34 43 46 63 110 196 128 263 18 68 39 248 32 266 -3 7 -6 9 -6 3z"/>
<path d="M410 226 c23 -29 127 -96 204 -131 96 -44 199 -66 331 -71 l110 -3
-111 14 c-176 22 -382 95 -504 178 -25 17 -38 23 -30 13z"/>
</g>
</svg>
