<?xml version="1.0" standalone="no"?>
<!DOCTYPE svg PUBLIC "-//W3C//DTD SVG 20010904//EN"
 "http://www.w3.org/TR/2001/REC-SVG-20010904/DTD/svg10.dtd">
<svg version="1.0" xmlns="http://www.w3.org/2000/svg"
 width="480.000000pt" height="550.000000pt" viewBox="0 0 480.000000 550.000000"
 preserveAspectRatio="xMidYMid meet">

<g transform="translate(0.000000,550.000000) scale(0.100000,-0.100000)"
fill="#000000" stroke="none">
<path d="M2240 5080 c-47 -5 -17 -7 105 -8 284 -3 484 -41 820 -156 334 -113
536 -223 785 -429 84 -70 88 -72 30 -18 -227 213 -523 404 -789 506 -103 40
-336 89 -495 104 -116 12 -347 12 -456 1z"/>
<path d="M2118 5063 c7 -3 16 -2 19 1 4 3 -2 6 -13 5 -11 0 -14 -3 -6 -6z"/>
<path d="M2387 4923 c-2 -4 -123 -213 -267 -463 -145 -250 -271 -467 -282
-482 l-19 -28 -689 0 -689 0 166 -287 c91 -159 246 -429 345 -600 l179 -313
-25 -42 c-13 -24 -141 -245 -284 -493 -142 -247 -287 -498 -320 -557 l-61
-108 689 0 690 0 23 -38 c13 -20 137 -235 277 -477 139 -242 258 -446 266
-454 15 -17 -13 -63 307 492 138 241 260 447 270 458 17 18 39 19 703 19 l685
0 -25 43 c-13 23 -159 276 -324 563 -166 286 -309 537 -318 557 -17 35 -17 39
0 74 10 21 159 283 331 583 173 300 317 553 321 563 6 16 -31 17 -679 17
l-686 0 -19 28 c-10 15 -137 232 -281 482 -145 250 -267 459 -271 463 -4 5
-10 5 -13 0z m54 -566 c44 -70 229 -394 229 -401 0 -3 -124 -6 -276 -6 l-276
0 42 78 c23 42 81 143 128 225 98 167 109 175 153 104z m-771 -665 c0 -8 -205
-369 -319 -562 -38 -64 -63 -95 -75 -95 -13 0 -63 79 -183 285 -201 347 -189
324 -175 355 l12 25 370 0 c203 0 370 -4 370 -8z m1157 -14 c19 -21 453 -770
502 -865 26 -53 26 -73 0 -126 -19 -37 -437 -761 -470 -815 -7 -11 -31 -31
-53 -44 -41 -23 -42 -23 -406 -23 l-365 0 -46 27 c-25 15 -54 40 -64 55 -11
15 -121 205 -247 422 -207 359 -228 399 -228 441 0 40 15 71 123 260 68 118
177 309 243 424 65 114 132 221 147 237 l29 29 407 0 408 0 20 -22z m1053 1
c10 -18 -4 -48 -104 -222 -192 -334 -251 -432 -261 -432 -5 0 -21 18 -36 40
-34 51 -346 594 -355 618 -6 16 16 17 370 17 371 0 375 0 386 -21z m-181
-1504 c89 -154 164 -291 168 -303 4 -17 -1 -30 -16 -45 -21 -22 -29 -22 -342
-25 -278 -2 -325 -1 -345 13 -13 8 -24 19 -24 24 0 12 339 602 358 624 13 14
18 15 28 5 7 -7 85 -139 173 -293z m-2386 258 c68 -107 337 -586 337 -598 0
-32 -37 -36 -359 -33 -297 3 -320 4 -340 22 -12 11 -21 30 -21 44 0 14 64 138
147 281 211 368 195 349 236 284z m1337 -904 c0 -20 -177 -337 -208 -371 -21
-25 -66 -22 -92 5 -39 41 -200 330 -200 359 l0 28 250 0 c246 0 250 0 250 -21z"/>
<path d="M636 4281 c-157 -178 -276 -351 -370 -539 -102 -203 -122 -259 -160
-452 -40 -201 -50 -329 -42 -554 9 -300 21 -328 21 -51 0 324 23 448 150 825
117 348 265 610 478 848 11 12 18 22 15 22 -2 0 -44 -45 -92 -99z"/>
<path d="M4712 3020 c0 -19 2 -27 5 -17 2 9 2 25 0 35 -3 9 -5 1 -5 -18z"/>
<path d="M4718 2770 c-9 -301 -35 -432 -157 -792 -116 -343 -248 -575 -473
-833 -65 -74 -63 -73 27 20 117 121 258 305 345 451 139 234 215 440 255 695
20 122 30 489 18 599 -8 67 -10 52 -15 -140z"/>
<path d="M805 1045 c173 -168 376 -315 585 -423 218 -113 378 -162 650 -198
99 -13 172 -15 355 -10 127 3 250 10 275 14 29 6 -17 7 -125 4 -279 -8 -490
23 -780 113 -442 137 -680 265 -977 524 -67 58 -66 56 17 -24z"/>
<path d="M2733 443 c9 -2 23 -2 30 0 6 3 -1 5 -18 5 -16 0 -22 -2 -12 -5z"/>
</g>
</svg>
